# xmcd
#
# Track frame offsets: 
#        150
#        25987
#        59371
#        94472
#
# Disc length: 1570 seconds
#
# Revision: 0
# Processed by: cddbd v1.5.2PL0 Copyright (c) Steve Scherf et al.
# Submitted via: ExactAudioCopy v0.95b4
#
DISCID=31062004
DTITLE=L´Na - Urgent
DYEAR=1900
DGENRE=
TTITLE0=extended mix
TTITLE1=resource club mix extended
TTITLE2=warp brothers remix
TTITLE3=northside club mix
EXTD=
EXTT0=
EXTT1=
EXTT2=
EXTT3=
PLAYORDER=
